<svg width="56" height="61" viewBox="0 0 56 61" fill="none" xmlns="http://www.w3.org/2000/svg">
<path d="M53.8462 49.374C50.1607 49.374 46.4274 46.2608 43.8906 41.0072C43.2205 39.6451 42.5026 38.3804 41.6889 37.1643C49.4906 35.2671 55.3778 28.3596 55.8564 20.0415C55.8564 19.6523 55.8564 19.2632 55.8564 18.874C55.8564 8.46412 47.5282 0 37.2855 0H0.239316V11.5287H37.3812C41.3539 11.5287 44.6086 14.8365 44.6086 18.874C44.6086 22.9115 41.3539 26.2193 37.3812 26.2193H21.7299H18.5709C8.3282 26.2193 0 34.6834 0 45.0933V61H11.3436V45.0933C11.3436 41.0558 14.5983 37.748 18.5709 37.748H23.788C27.4735 37.748 31.2068 40.8612 33.7436 46.1148C38.2427 55.4059 45.7573 60.9514 53.8462 60.9514H56V49.4226H53.8462V49.374Z" fill="#C4C4C4"/>
<path d="M41.6889 37.1643C49.4906 35.2671 55.3778 28.3596 55.8564 20.0415C55.8564 19.6523 55.8564 19.2632 55.8564 18.874C55.8564 8.46412 47.5282 0 37.2855 0H0.239316V11.5287H37.3812C41.3538 11.5287 44.6086 14.8365 44.6086 18.874C44.6086 22.9115 41.3538 26.2193 37.3812 26.2193H21.7299H18.5709C8.3282 26.2193 0 34.6834 0 45.0933V61H11.3436V45.0933C11.3436 41.0558 14.5983 37.748 18.5709 37.748H23.788C28.5378 37.748 39 37.748 41.6889 37.1643Z" fill="#FE457A"/>
<path d="M53.8462 49.374C50.1607 49.374 46.4274 46.2608 43.8906 41.0072C43.2205 39.6451 42.5026 38.3804 41.6889 37.1643C49.4906 35.2671 55.3778 28.3596 55.8564 20.0415C55.8564 19.6523 55.8564 19.2632 55.8564 18.874C55.8564 8.46412 47.5282 0 37.2855 0H0.239316V11.5287H37.3812C41.3539 11.5287 44.6086 14.8365 44.6086 18.874C44.6086 22.9115 41.3539 26.2193 37.3812 26.2193H21.7299H18.5709C8.3282 26.2193 0 34.6834 0 45.0933V61H11.3436V45.0933C11.3436 41.0558 14.5983 37.748 18.5709 37.748H23.788C27.4735 37.748 31.2068 40.8612 33.7436 46.1148C38.2427 55.4059 45.7573 60.9514 53.8462 60.9514H56V49.4226H53.8462V49.374Z" fill="#C4C4C4"/>
<path d="M41.6889 37.1643C49.4906 35.2671 55.3778 28.3596 55.8564 20.0415C55.8564 19.6523 55.8564 19.2632 55.8564 18.874C55.8564 8.46412 47.5282 0 37.2855 0H0.239316V11.5287H37.3812C41.3538 11.5287 44.6086 14.8365 44.6086 18.874C44.6086 22.9115 41.3538 26.2193 37.3812 26.2193H21.7299H18.5709C8.3282 26.2193 0 34.6834 0 45.0933V61H11.3436V45.0933C11.3436 41.0558 14.5983 37.748 18.5709 37.748H23.788C28.5378 37.748 39 37.748 41.6889 37.1643Z" fill="#FE457A"/>
</svg>
