<svg width="238" height="19" viewBox="0 0 238 19" fill="none" xmlns="http://www.w3.org/2000/svg">
<g clip-path="url(#clip0_903_1430)">
<path d="M5.16514 7.7524C7.05473 7.7688 8.93545 7.67036 10.825 7.61293C11.588 7.58832 12.3598 7.55551 13.1227 7.51449C16.5027 7.35861 19.8827 7.20274 23.2626 7.04687C27.2991 6.85818 31.3444 6.66129 35.3809 6.4562C41.1561 6.16086 46.9225 5.85732 52.6888 5.56198C54.0107 5.49635 55.3325 5.44713 56.6543 5.3897C60.0166 5.24203 63.3788 5.09437 66.741 4.9549C70.1033 4.80723 73.4655 4.65956 76.8277 4.5201C78.1407 4.46267 79.4625 4.38884 80.7755 4.34782C86.1426 4.19195 91.5098 4.03608 96.8681 3.8802C100.168 3.78176 103.468 3.69152 106.768 3.59307C108.064 3.55205 109.35 3.50283 110.645 3.47822C115.835 3.41259 121.016 3.33055 126.206 3.26492C131.324 3.19108 136.443 3.12545 141.562 3.05162C142.91 3.03521 144.268 3.04342 145.616 3.03521C148.96 3.02701 152.296 3.0106 155.641 3.0024C160.839 2.98599 166.029 2.96958 171.228 2.94497C172.922 2.94497 174.625 2.95317 176.329 2.96138C179.886 2.96958 183.443 2.98599 187.001 2.99419C187.294 2.99419 187.586 2.99419 187.879 2.99419C179.868 3.09264 171.866 3.19108 163.855 3.30594C160.511 3.35516 157.166 3.39618 153.822 3.4454C152.376 3.46181 150.939 3.47001 149.493 3.50283C144.658 3.61768 139.814 3.74894 134.979 3.8638C129.39 4.00326 123.793 4.14272 118.204 4.28219C117.263 4.3068 116.323 4.35602 115.383 4.39704C112.402 4.5283 109.43 4.65136 106.449 4.77442C100.408 5.02874 94.3663 5.29126 88.325 5.54557C87.429 5.58659 86.5418 5.64402 85.6458 5.70145C82.7006 5.89013 79.7464 6.07882 76.7922 6.26751C71.5049 6.60386 66.2265 6.94022 60.9392 7.27658C59.4843 7.36682 58.0294 7.50628 56.5745 7.61293C53.1945 7.87545 49.8057 8.13798 46.4257 8.4005C42.1231 8.73685 37.8205 9.0568 33.5268 9.40956C27.5386 9.89359 21.5594 10.3776 15.5712 10.8616C14.1341 10.9765 12.6969 11.0913 11.2686 11.2062C8.69593 11.4113 6.13211 11.7148 3.55943 11.9774C3.28442 12.002 3.05376 12.166 3.05376 12.445C3.05376 12.7239 3.28442 12.8962 3.55943 12.9126C4.49979 12.9536 5.44015 12.9864 6.37164 13.0274C6.25631 13.2571 6.18534 13.5033 6.18534 13.7494C6.18534 14.6354 7.01925 15.5132 8.02171 15.4558C15.3583 15.0292 22.6949 14.5698 30.0403 14.2498C36.4188 13.9709 42.7884 13.6919 49.1669 13.4048C56.2196 13.0931 63.2635 12.7813 70.3162 12.4696C72.534 12.3711 74.7518 12.2727 76.9697 12.1742C77.6084 12.1496 78.2471 12.1086 78.8948 12.0922C90.2501 11.8133 101.605 11.5426 112.961 11.2636C119.029 11.116 125.097 10.9683 131.165 10.8206C133.356 10.7714 135.547 10.7222 137.738 10.6894C149.351 10.5253 160.963 10.353 172.585 10.1889C177.562 10.1151 182.538 10.0413 187.515 9.96742C191.765 9.90179 196.014 9.87718 200.263 9.72951C203.768 9.60646 207.281 9.4834 210.794 9.36034C212.541 9.30292 214.298 9.2619 216.045 9.15525C220.029 8.92554 224.012 8.68763 227.995 8.44152C227.995 8.44152 227.995 8.44972 227.986 8.45792C227.764 8.81069 227.702 9.24549 227.818 9.63927C227.933 10.0248 228.208 10.353 228.581 10.5581C228.927 10.7468 229.468 10.8534 229.858 10.714C230.728 10.394 231.588 10.0659 232.449 9.73772C232.431 9.73772 232.413 9.75412 232.395 9.76233L232.59 9.68849C232.661 9.66388 232.741 9.63107 232.812 9.60646C232.786 9.61466 232.759 9.63107 232.732 9.63927C233.194 9.45879 233.655 9.2783 234.108 9.09782C234.587 8.90913 235.066 8.72865 235.545 8.53176C236.068 8.31846 236.565 8.06414 237.071 7.81803C237.638 7.5391 237.984 6.92381 237.984 6.34134C237.984 6.0296 237.896 5.74247 237.736 5.47994C237.514 5.12718 237.079 4.76621 236.636 4.69238C236.192 4.61855 235.749 4.56932 235.296 4.5119C235.199 4.50369 235.101 4.49549 234.995 4.49549C234.693 4.49549 234.374 4.53651 234.09 4.55292C233.416 4.59393 232.741 4.69238 232.067 4.7334C231.517 4.77442 230.967 4.80723 230.408 4.84005C228.918 4.93849 227.436 5.03694 225.955 5.13539C225.573 5.16 225.183 5.18461 224.801 5.20922C224.943 5.06155 225.041 4.89747 225.103 4.70058C225.174 4.55292 225.21 4.38884 225.218 4.22476C225.236 4.10991 225.254 3.99506 225.272 3.872C225.272 3.71613 225.245 3.57666 225.192 3.4372C225.227 3.42079 225.272 3.40438 225.307 3.38798C225.582 3.2321 225.813 3.02701 225.973 2.77269C226.141 2.50197 226.23 2.21483 226.23 1.90309C226.23 1.59134 226.141 1.30421 225.973 1.03348C225.875 0.918632 225.777 0.803778 225.68 0.680721C225.449 0.467423 225.174 0.319754 224.855 0.237716C224.278 0.0326212 223.684 -0.0166016 223.072 -0.0166016C222.575 -0.0166016 222.078 0.0162136 221.581 0.0244174C220.871 0.0244174 220.153 0.040825 219.443 0.040825C218.432 0.0490288 217.421 0.0654364 216.409 0.0654364C213.739 0.081844 211.069 0.0900478 208.398 0.106455C205.888 0.122863 203.377 0.114659 200.867 0.114659C198.587 0.114659 196.298 0.114659 194.018 0.114659C184.916 0.155678 175.823 0.163882 166.721 0.254124C159.899 0.319754 153.077 0.385385 146.255 0.442811C143.203 0.475626 140.16 0.516645 137.108 0.574072C130.269 0.705333 123.438 0.844797 116.598 0.976058C114.646 1.01708 112.695 1.04989 110.752 1.09091C109.625 1.11552 108.49 1.16475 107.363 1.20576C100.603 1.44367 93.8518 1.68158 87.0919 1.9195C85.0337 1.99333 82.9667 2.06716 80.9085 2.141C79.7553 2.18202 78.5931 2.25585 77.4398 2.30507C70.7331 2.64143 64.0175 2.96958 57.3108 3.30594C53.8421 3.47822 50.3823 3.6669 46.9225 3.872C40.9964 4.21656 35.0615 4.56932 29.1355 4.91388C23.999 5.20922 18.8625 5.47174 13.726 5.75067C12.9098 5.79169 12.0936 5.84091 11.2864 5.88193C9.9734 5.95576 8.65157 6.00499 7.33861 6.05421C6.1676 6.10343 4.99658 6.13625 3.82557 6.10343C3.71024 5.8245 3.40862 5.5948 3.07151 5.61941C2.31744 5.67684 1.56338 5.75067 0.809317 5.8245C0.445593 5.85732 0.126225 6.0296 0.0197688 6.37416C-0.0955584 6.75974 0.16171 7.21095 0.587534 7.30119C0.915773 7.37502 1.24401 7.44886 1.57225 7.52269C1.89162 7.58832 2.2376 7.61293 2.55697 7.63754C3.41749 7.71138 4.28688 7.72779 5.15627 7.72779L5.16514 7.7524ZM212.763 5.11898C213.863 5.11898 214.972 5.11898 216.072 5.11898C216.17 5.34868 216.32 5.55378 216.516 5.71785C216.09 5.74247 215.664 5.76708 215.238 5.78348C214.431 5.8081 213.632 5.84091 212.825 5.86552C209.312 5.98858 205.808 6.11164 202.295 6.23469C200.689 6.29212 199.084 6.37416 197.478 6.39877C194.967 6.43159 192.457 6.4726 189.946 6.50542C184.206 6.58746 178.475 6.6695 172.736 6.75974C161.602 6.92381 150.46 7.08789 139.326 7.25197C131.351 7.36682 123.376 7.59653 115.409 7.79342C103.397 8.08875 91.3856 8.38409 79.3738 8.67943C76.9697 8.73685 74.5567 8.88452 72.1525 8.99117C65.3305 9.29471 58.5173 9.59825 51.6953 9.90179C44.9974 10.1971 38.3084 10.4925 31.6106 10.7878C30.9896 10.8124 30.3686 10.8452 29.7476 10.8698C31.5485 10.7386 33.3582 10.5991 35.1591 10.4761C41.4577 10.0331 47.7564 9.58184 54.0639 9.13884C56.264 8.98297 58.4641 8.8271 60.6642 8.67122C61.7997 8.58918 62.9352 8.53996 64.0708 8.47433C70.6267 8.10516 77.1737 7.74419 83.7296 7.37502C85.0071 7.30119 86.2934 7.21095 87.5709 7.16172C89.4161 7.09609 91.2614 7.03046 93.1066 6.96483C99.8577 6.71872 106.618 6.48081 113.369 6.23469C114.859 6.18547 116.341 6.12804 117.831 6.07062C118.221 6.05421 118.612 6.05421 119.002 6.04601C120.049 6.0296 121.087 6.00499 122.134 5.98858C128.902 5.85732 135.671 5.73426 142.44 5.603C145.563 5.54557 148.677 5.47174 151.799 5.45533C161.868 5.3815 171.928 5.28305 181.997 5.24203C192.253 5.20101 202.508 5.13538 212.763 5.12718V5.11898Z" fill="#051C48"/>
<path d="M18.5057 18.9997C18.7849 18.9997 19.0113 18.7903 19.0113 18.5321C19.0113 18.2738 18.7849 18.0645 18.5057 18.0645C18.2264 18.0645 18 18.2738 18 18.5321C18 18.7903 18.2264 18.9997 18.5057 18.9997Z" fill="#051C48"/>
</g>
<defs>
<clipPath id="clip0_903_1430">
<rect width="238" height="19" fill="white"/>
</clipPath>
</defs>
</svg>
