<svg width="321" height="307" viewBox="0 0 321 307" fill="none" xmlns="http://www.w3.org/2000/svg">
<path d="M148.611 205.629L185.43 205.629L185.43 205.657L247.462 205.657C263.232 205.657 276.053 218.394 276.053 234.042C276.053 249.69 263.232 262.427 247.462 262.427L-79 262.427L-79 307L247.462 307C288.002 307 321 274.27 321 234.028C321 232.509 320.943 231.004 320.843 229.513L321 229.513C318.639 191.372 286.628 161.056 247.605 161.056L210.586 161.056L210.586 161.028L148.596 161.028C132.827 161.028 119.991 148.291 119.991 132.657L119.991 112.153C119.991 97.5981 132.212 82.9866 152.675 73.0327C188.907 55.4252 210.529 25.8332 210.529 -6.1302L210.529 -43L165.582 -43L165.582 -6.1302C165.582 8.4102 153.361 23.0358 132.899 32.9898C96.6663 50.5973 75.0443 80.2035 75.0443 112.167L75.0443 132.671C75.0443 172.913 108.028 205.643 148.582 205.643L148.611 205.629Z" fill="#051C48"/>
</svg>
