<svg width="105" height="230" viewBox="0 0 105 230" fill="none" xmlns="http://www.w3.org/2000/svg">
<path d="M44.1773 103.433L44.1773 81.342L44.1943 81.342L44.1943 44.1226C44.1943 34.661 51.8366 26.9681 61.2252 26.9681C70.6139 26.9681 78.2562 34.661 78.2562 44.1226L78.2562 240L105 240L105 44.1226C105 19.799 85.362 -8.58407e-07 61.2168 -1.91382e-06C60.3054 -1.95367e-06 59.4022 0.0343414 58.5076 0.0944425L58.5076 -2.03225e-06C35.6234 1.41666 17.4337 20.6232 17.4337 44.0368L17.4337 66.2484L17.4167 66.2484L17.4167 103.442C17.4167 112.904 9.77443 120.605 0.39418 120.605L-11.9084 120.605C-20.6411 120.605 -29.4081 113.273 -35.3804 101.495C-45.9449 79.2557 -63.7002 66.2826 -82.878 66.2826L-105 66.2826L-105 93.2508L-82.878 93.2508C-74.1541 93.2508 -65.3786 100.583 -59.4061 112.361C-48.8416 134.6 -31.0779 147.573 -11.8999 147.573L0.402688 147.573C24.5477 147.573 44.1858 127.783 44.1859 103.451L44.1773 103.433Z" fill="#051C48"/>
</svg>
