<svg width="124" height="25" viewBox="0 0 124 25" fill="none" xmlns="http://www.w3.org/2000/svg">
<g clip-path="url(#clip0_901_4048)">
<path d="M68.1713 7.12573C65.4157 7.12573 62.9397 8.35981 61.2425 10.2905C59.5652 8.35981 57.0892 7.12573 54.3137 7.12573C49.2618 7.12573 45.1484 11.2261 45.1484 16.2619V24.9601H49.6412V16.2619C49.6412 13.6942 51.7378 11.6042 54.3137 11.6042C56.8895 11.6042 58.9861 13.6942 58.9861 16.2619V24.9601H63.4789V16.2619C63.4789 13.6942 65.5755 11.6042 68.1513 11.6042C70.7272 11.6042 72.8238 13.6942 72.8238 16.2619V24.9601H77.3166V16.2619C77.3166 11.2261 73.2032 7.12573 68.1513 7.12573" fill="#1B2443"/>
<path d="M115.036 7.12573C110.084 7.12573 106.07 11.1265 106.07 16.0628C106.07 20.9991 110.084 24.9999 115.036 24.9999C119.988 24.9999 124.001 20.9991 124.001 16.0628C124.001 11.1265 119.988 7.12573 115.036 7.12573ZM115.036 20.5413C112.56 20.5413 110.543 18.531 110.543 16.0628C110.543 13.5947 112.56 11.5843 115.036 11.5843C117.512 11.5843 119.529 13.5947 119.529 16.0628C119.529 18.531 117.512 20.5413 115.036 20.5413Z" fill="#1B2443"/>
<path d="M34.1218 7.12573C29.1698 7.12573 25.1562 11.1265 25.1562 16.0628C25.1562 20.9991 29.1698 24.9999 34.1218 24.9999C35.7591 24.9999 37.2767 24.562 38.6145 23.8057V24.8606H43.1073V16.0827C43.1073 11.1464 39.0938 7.14564 34.1418 7.14564M34.1218 20.5413C31.6458 20.5413 29.629 18.531 29.629 16.0628C29.629 13.5947 31.6458 11.5843 34.1218 11.5843C36.5978 11.5843 38.6145 13.5947 38.6145 16.0628C38.6145 18.531 36.5978 20.5413 34.1218 20.5413Z" fill="#1B2443"/>
<path d="M103.969 0H99.4766V24.9204H103.969V0Z" fill="#1B2443"/>
<path d="M88.3796 7.12573C83.4276 7.12573 79.4141 11.1265 79.4141 16.0628C79.4141 20.9991 83.4276 24.9999 88.3796 24.9999C90.017 24.9999 91.5345 24.562 92.8724 23.8057V24.8606H97.3651V16.0827C97.3651 11.1464 93.3516 7.14564 88.3996 7.14564M88.3796 20.5413C85.9036 20.5413 83.8868 18.531 83.8868 16.0628C83.8868 13.5947 85.9036 11.5843 88.3796 11.5843C90.8556 11.5843 92.8724 13.5947 92.8724 16.0628C92.8724 18.531 90.8556 20.5413 88.3796 20.5413Z" fill="#1B2443"/>
<path d="M22.4403 20.203C20.9028 20.203 19.3453 18.9291 18.287 16.7795C18.0075 16.2221 17.708 15.7046 17.3685 15.207C20.6233 14.4307 23.0793 11.6043 23.279 8.20064C23.279 8.0414 23.279 7.88217 23.279 7.72293C23.279 3.46338 19.8046 0 15.5315 0H0.0764015V4.71736H15.5714C17.2287 4.71736 18.5865 6.07086 18.5865 7.72293C18.5865 9.375 17.2287 10.7285 15.5714 10.7285H9.04194H7.72407C3.45096 10.7285 -0.0234375 14.1919 -0.0234375 18.4514V24.9602H4.70893V18.4514C4.70893 16.7994 6.06674 15.4459 7.72407 15.4459H9.90056C11.4381 15.4459 12.9956 16.7197 14.0539 18.8694C15.9308 22.6712 19.0658 24.9403 22.4403 24.9403H23.3389V20.2229H22.4403V20.203Z" fill="#1B2443"/>
</g>
<defs>
<clipPath id="clip0_901_4048">
<rect width="124" height="25" fill="white"/>
</clipPath>
</defs>
</svg>
